<?xml version="1.0" encoding="utf-8"?>
<svg id="master-artboard" viewBox="0 0 1400 980" version="1.1" xmlns="http://www.w3.org/2000/svg" x="0px" y="0px" style="enable-background:new 0 0 1400 980;" width="1400px" height="980px"><path class="st1" d="M256.1,753.8c-1.6,0.6-10.7-36.6-10.7-36.6" style="fill: none; stroke: rgb(189, 189, 189); stroke-width: 10; stroke-linecap: round; stroke-linejoin: round; stroke-miterlimit: 10;" transform="matrix(0.9999999999999999, 0, 0, 0.9999999999999999, -0.00003592220311077199, 0.0000022451376864296435)"/><path d="M 285 532.599976 L 338.100006 460.600006" class="st1" style="fill: none; stroke: rgb(189, 189, 189); stroke-width: 10; stroke-linecap: round; stroke-linejoin: round; stroke-miterlimit: 10;" transform="matrix(0.9999999999999999, 0, 0, 0.9999999999999999, -0.00003592220311077199, 0.0000022451376864296435)"/><path d="M 234.199997 196.899994 L 342.899994 308.399994" class="st1" style="fill: none; stroke: rgb(189, 189, 189); stroke-width: 10; stroke-linecap: round; stroke-linejoin: round; stroke-miterlimit: 10;" transform="matrix(0.9999999999999999, 0, 0, 0.9999999999999999, -0.00003592220311077199, 0.0000022451376864296435)"/><path d="M 500 324.399994 L 611.299988 280.799988" class="st1" style="fill: none; stroke: rgb(189, 189, 189); stroke-width: 10; stroke-linecap: round; stroke-linejoin: round; stroke-miterlimit: 10;" transform="matrix(0.9999999999999999, 0, 0, 0.9999999999999999, -0.00003592220311077199, 0.0000022451376864296435)"/><path d="M 769.599976 302.600006 L 861.200012 394.5" class="st1" style="fill: none; stroke: rgb(189, 189, 189); stroke-width: 10; stroke-linecap: round; stroke-linejoin: round; stroke-miterlimit: 10;" transform="matrix(0.9999999999999999, 0, 0, 0.9999999999999999, -0.00003592220311077199, 0.0000022451376864296435)"/><path d="M 1009.099976 414.700012 L 1086.400024 373.200012" class="st1" style="fill: none; stroke: rgb(189, 189, 189); stroke-width: 10; stroke-linecap: round; stroke-linejoin: round; stroke-miterlimit: 10;" transform="matrix(0.9999999999999999, 0, 0, 0.9999999999999999, -0.00003592220311077199, 0.0000022451376864296435)"/><path class="st1" d="M1112.3,717.2c-1.3,1.2-95.8-184.6-95.8-184.6" style="fill: none; stroke: rgb(189, 189, 189); stroke-width: 10; stroke-linecap: round; stroke-linejoin: round; stroke-miterlimit: 10;" transform="matrix(0.9999999999999999, 0, 0, 0.9999999999999999, -0.00003592220311077199, 0.0000022451376864296435)"/><path d="M 187.899994 513.099976 L 158.600006 238" class="st1" style="fill: none; stroke: rgb(189, 189, 189); stroke-width: 10; stroke-linecap: round; stroke-linejoin: round; stroke-miterlimit: 10;" transform="matrix(0.9999999999999999, 0, 0, 0.9999999999999999, -0.00003592220311077199, 0.0000022451376864296435)"/><path d="M 213.5 90.900002 L 605 175.600006" class="st1" style="fill: none; stroke: rgb(189, 189, 189); stroke-width: 10; stroke-linecap: round; stroke-linejoin: round; stroke-miterlimit: 10;" transform="matrix(0.9999999999999999, 0, 0, 0.9999999999999999, -0.00003592220311077199, 0.0000022451376864296435)"/><path d="M 799.5 186 L 1087.599976 255" class="st1" style="fill: none; stroke: rgb(189, 189, 189); stroke-width: 10; stroke-linecap: round; stroke-linejoin: round; stroke-miterlimit: 10;" transform="matrix(0.9999999999999999, 0, 0, 0.9999999999999999, -0.00003592220311077199, 0.0000022451376864296435)"/><path d="M 1182 421.100006 L 1190.599976 691.099976" class="st1" style="fill: none; stroke: rgb(189, 189, 189); stroke-width: 10; stroke-linecap: round; stroke-linejoin: round; stroke-miterlimit: 10;" transform="matrix(0.9999999999999999, 0, 0, 0.9999999999999999, -0.00003592220311077199, 0.0000022451376864296435)"/><path d="M 820.599976 460.600006 L 500 447.399994" class="st1" style="fill: none; stroke: rgb(189, 189, 189); stroke-width: 10; stroke-linecap: round; stroke-linejoin: round; stroke-miterlimit: 10;" transform="matrix(0.9999999999999999, 0, 0, 0.9999999999999999, -0.00003592220311077199, 0.0000022451376864296435)"/><path d="M 844.099976 763.099976 L 1076 797.099976" class="st1" style="fill: none; stroke: rgb(189, 189, 189); stroke-width: 10; stroke-linecap: round; stroke-linejoin: round; stroke-miterlimit: 10;" transform="matrix(0.9999999999999999, 0, 0, 0.9999999999999999, -0.00003592220311077199, 0.0000022451376864296435)"/><path d="M 555.700012 640.099976 L 453.899994 485.200012" class="st1" style="fill: none; stroke: rgb(189, 189, 189); stroke-width: 10; stroke-linecap: round; stroke-linejoin: round; stroke-miterlimit: 10;" transform="matrix(0.9999999999999999, 0, 0, 0.9999999999999999, -0.00003592220311077199, 0.0000022451376864296435)"/><path d="M 300.299988 645.599976 L 555.700012 717.200012" class="st1" style="fill: none; stroke: rgb(189, 189, 189); stroke-width: 10; stroke-linecap: round; stroke-linejoin: round; stroke-miterlimit: 10;" transform="matrix(0.9999999999999999, 0, 0, 0.9999999999999999, -0.00003592220311077199, 0.0000022451376864296435)"/><path d="M 399.899994 814.299988 L 565.099976 780.099976" class="st1" style="fill: none; stroke: rgb(189, 189, 189); stroke-width: 10; stroke-linecap: round; stroke-linejoin: round; stroke-miterlimit: 10;" transform="matrix(0.9999999999999999, 0, 0, 0.9999999999999999, -0.00003592220311077199, 0.0000022451376864296435)"/><path d="M 855.099976 558.900024 L 815.200012 593.599976" class="st1" style="fill: none; stroke: rgb(189, 189, 189); stroke-width: 10; stroke-linecap: round; stroke-linejoin: round; stroke-miterlimit: 10;" transform="matrix(0.9999999999999999, 0, 0, 0.9999999999999999, -0.00003592220311077199, 0.0000022451376864296435)"/><path class="st2" d="M529.3,865.5c4.1-8.6,12.4-14.5,21.8-15.4C586,846.5,668.8,838,674.5,838h51c5.7,0,88.5,8.5,123.4,12.1&#10;&#9;&#9;c9.5,1,17.8,6.8,21.8,15.4L925,980H475L529.3,865.5z" style="fill: rgb(120, 94, 73);" transform="matrix(0.9999999999999999, 0, 0, 0.9999999999999999, -0.00003592220311077199, 0.0000022451376864296435)"/><path class="st3" d="M815.2,657.4v55.3c0,63.6-51.6,115.2-115.2,115.2s-115.2-51.6-115.2-115.2v-55.3H815.2z" style="fill: rgb(255, 213, 153);" transform="matrix(0.9999999999999999, 0, 0, 0.9999999999999999, -0.00003592220311077199, 0.0000022451376864296435)"/><path class="st3" d="M700,865.3L700,865.3c14.1,0,25.5-11.4,25.5-25.5v-25.5h-51v25.5C674.5,853.9,685.9,865.3,700,865.3z" style="fill: rgb(255, 213, 153);" transform="matrix(0.9999999999999999, 0, 0, 0.9999999999999999, -0.00003592220311077199, 0.0000022451376864296435)"/><path class="st4" d="M700,555.8c71.2,0,128.9,57.7,128.9,128.9c0,0,0,20.3,0,25.9c-23.9,0-49.8-51.1-49.8-51.1s-13.6,52.5-208,52.5&#10;&#9;&#9;v-27.3C571.1,613.5,628.8,555.8,700,555.8z" style="fill: rgb(66, 66, 66);" transform="matrix(0.9999999999999999, 0, 0, 0.9999999999999999, -0.00003592220311077199, 0.0000022451376864296435)"/><path d="M 674.5 851.5 H 725.5 V 867.5 H 674.5 V 851.5 Z" transform="matrix(-0.9999999999999999, -4.490286961700285e-11, 4.490286961700285e-11, -0.9999999999999999, 1399.9999640777967, 1718.862673143575)" class="st5" style="fill: rgb(253, 177, 40);"/><path d="M 674.5 867.5999755859375 L 725.5 867.5999755859375 L 738.4000244140625 980 L 661.5999755859375 980 Z" class="st5" style="fill: rgb(253, 177, 40);" transform="matrix(0.9999999999999999, 0, 0, 0.9999999999999999, -0.00003592220311077199, 0.0000022451376864296435)"/><path d="M 667.0999755859375 830.0999755859375 L 700 851.5 L 658.4000244140625 875.5999755859375 Z" class="st6" style="fill: rgb(210, 75, 70);" transform="matrix(0.9999999999999999, 0, 0, 0.9999999999999999, -0.00003592220311077199, 0.0000022451376864296435)"/><path d="M 732.9000244140625 830.0999755859375 L 700 851.5 L 741.5999755859375 875.5999755859375 Z" class="st6" style="fill: rgb(210, 75, 70);" transform="matrix(0.9999999999999999, 0, 0, 0.9999999999999999, -0.00003592220311077199, 0.0000022451376864296435)"/><path d="M 1281 315 A 106 106 0 0 1 1175 421 A 106 106 0 0 1 1069 315 A 106 106 0 0 1 1175 209 A 106 106 0 0 1 1281 315 Z" class="st7" style="fill: rgb(189, 221, 255);" transform="matrix(0.9999999999999999, 0, 0, 0.9999999999999999, -0.00003592219947279318, 0.000002245137459055968)"/><path d="M 256.100006 132.300003 A 106 106 0 0 1 150.100006 238.300003 A 106 106 0 0 1 44.100006 132.300003 A 106 106 0 0 1 150.100006 26.300003 A 106 106 0 0 1 256.100006 132.300003 Z" class="st7" style="fill: rgb(189, 221, 255);" transform="matrix(0.9999999999999999, 0, 0, 0.9999999999999999, -0.00003592219947279318, 0.000002245137459055968)"/><path d="M 806 222.699997 A 106 106 0 0 1 700 328.699997 A 106 106 0 0 1 594 222.699997 A 106 106 0 0 1 700 116.699997 A 106 106 0 0 1 806 222.699997 Z" transform="matrix(0.7071000337600708, -0.7071000337600708, 0.7071000337600708, 0.7071000337600708, 47.585962612956806, 560.1884177724812)" class="st7" style="fill: rgb(189, 221, 255);"/><path d="M 1031 479.200012 A 106 106 0 0 1 925 585.200012 A 106 106 0 0 1 819 479.200012 A 106 106 0 0 1 925 373.200012 A 106 106 0 0 1 1031 479.200012 Z" class="st7" style="fill: rgb(189, 221, 255);" transform="matrix(0.9999999999999999, 0, 0, 0.9999999999999999, -0.00003592219947279318, 0.000002245137459055968)"/><path d="M 324 614.700012 A 106 106 0 0 1 218 720.700012 A 106 106 0 0 1 112 614.700012 A 106 106 0 0 1 218 508.700012 A 106 106 0 0 1 324 614.700012 Z" class="st7" style="fill: rgb(189, 221, 255);" transform="matrix(0.9999999999999999, 0, 0, 0.9999999999999999, -0.00003592219947279318, 0.000002245137459055968)"/><path d="M 419.899994 832.799988 A 106 106 0 0 1 313.899994 938.799988 A 106 106 0 0 1 207.899994 832.799988 A 106 106 0 0 1 313.899994 726.799988 A 106 106 0 0 1 419.899994 832.799988 Z" class="st7" style="fill: rgb(189, 221, 255);" transform="matrix(0.9999999999999999, 0, 0, 0.9999999999999999, -0.00003592219947279318, 0.000002245137459055968)"/><path d="M 1288 797.099976 A 106 106 0 0 1 1182 903.099976 A 106 106 0 0 1 1076 797.099976 A 106 106 0 0 1 1182 691.099976 A 106 106 0 0 1 1288 797.099976 Z" transform="matrix(0.7071000337600708, -0.7071000337600708, 0.7071000337600708, 0.7071000337600708, -217.41763846126196, 1069.2761252920122)" class="st7" style="fill: rgb(189, 221, 255);"/><path d="M 520.299988 386.799988 A 106 106 0 0 1 414.299988 492.799988 A 106 106 0 0 1 308.299988 386.799988 A 106 106 0 0 1 414.299988 280.799988 A 106 106 0 0 1 520.299988 386.799988 Z" class="st7" style="fill: rgb(189, 221, 255);" transform="matrix(0.9999999999999999, 0, 0, 0.9999999999999999, -0.00003592219947279318, 0.000002245137459055968)"/><path class="st8" d="M378,823.6h-24.7c-0.9,0-1.6-0.6-1.9-1.5c-0.8-2.9-2-5.6-3.4-8.2c-0.4-0.8-0.3-1.7,0.3-2.3l17.5-17.5&#10;&#9;c0.8-0.8,0.8-2,0-2.8L355.4,781c-0.8-0.8-2-0.8-2.8,0l-17.5,17.5c-0.6,0.6-1.6,0.7-2.3,0.3c-2.6-1.4-5.3-2.6-8.2-3.4&#10;&#9;c-0.9-0.2-1.5-1-1.5-1.9v-24.7c0-1.1-0.9-2-2-2h-14.6c-1.1,0-2,0.9-2,2v24.7c0,0.9-0.6,1.6-1.5,1.9c-2.9,0.8-5.6,2-8.2,3.4&#10;&#9;c-0.8,0.4-1.7,0.3-2.3-0.3L275.2,781c-0.8-0.8-2-0.8-2.8,0l-10.4,10.4c-0.8,0.8-0.8,2,0,2.8l17.5,17.5c0.6,0.6,0.7,1.6,0.3,2.3&#10;&#9;c-1.4,2.6-2.6,5.3-3.4,8.2c-0.2,0.9-1,1.5-1.9,1.5h-24.7c-1.1,0-2,0.9-2,2v14.6c0,1.1,0.9,2,2,2h24.7c0.9,0,1.6,0.6,1.9,1.5&#10;&#9;c0.8,2.9,2,5.6,3.4,8.2c0.4,0.8,0.3,1.7-0.3,2.3l-17.5,17.5c-0.8,0.8-0.8,2,0,2.8l10.4,10.4c0.8,0.8,2,0.8,2.8,0l17.5-17.5&#10;&#9;c0.6-0.6,1.6-0.7,2.3-0.3c2.6,1.4,5.3,2.6,8.2,3.4c0.9,0.2,1.5,1,1.5,1.9v24.7c0,1.1,0.9,2,2,2h14.6c1.1,0,2-0.9,2-2v-24.7&#10;&#9;c0-0.9,0.6-1.6,1.5-1.9c2.9-0.8,5.6-2,8.2-3.4c0.8-0.4,1.7-0.3,2.3,0.3l17.5,17.5c0.8,0.8,2,0.8,2.8,0l10.4-10.4&#10;&#9;c0.8-0.8,0.8-2,0-2.8l-17.5-17.5c-0.6-0.6-0.7-1.6-0.3-2.3c1.4-2.6,2.6-5.3,3.4-8.2c0.2-0.9,1-1.5,1.9-1.5H378c1.1,0,2-0.9,2-2&#10;&#9;v-14.6C379.9,824.4,379.1,823.6,378,823.6z M313.9,851.8c-10.4,0-18.9-8.5-18.9-18.9c0-10.4,8.5-18.9,18.9-18.9s18.9,8.5,18.9,18.9&#10;&#9;C332.9,843.3,324.4,851.8,313.9,851.8z" style="fill: rgb(197, 196, 194);" transform="matrix(0.9999999999999999, 0, 0, 0.9999999999999999, -0.00003592219947279318, 0.000002245137459055968)"/><path d="M 1173 734.200012 H 1195.1 V 855.900009 H 1173 V 734.200012 Z" transform="matrix(0.7071000337600708, 0.7071000337600708, -0.7071000337600708, 0.7071000337600708, 909.0089362457655, -604.3367897470497)" class="st9" style="fill: rgb(154, 154, 154);"/><path class="st10" d="M1246.8,742.9l-10.5-10.5l5.1-5.1c1.7-1.7,4.5-1.7,6.2,0l4.3,4.3c1.7,1.7,1.7,4.5,0,6.2L1246.8,742.9z" style="fill: rgb(250, 228, 0);" transform="matrix(0.9999999999999999, 0, 0, 0.9999999999999999, -0.00003592220311077199, 0.0000022451376864296435)"/><path d="M 1118.699951171875 844.7999877929688 L 1114.5999755859375 857.0999755859375 L 1110.9000244140625 868.2000122070312 L 1122 864.5 L 1134.300048828125 860.4000244140625 Z" class="st8" style="fill: rgb(197, 196, 194);" transform="matrix(0.9999999999999999, 0, 0, 0.9999999999999999, -0.00003592220311077199, 0.0000022451376864296435)"/><path d="M 1223.199951 734.599976 H 1245.299952 V 754.999975 H 1223.199951 V 734.599976 Z" transform="matrix(0.7071000337600708, 0.7071000337600708, -0.7071000337600708, 0.7071000337600708, 888.1836798981093, -654.6065041025184)" class="st11" style="fill: rgb(255, 134, 43);"/><path d="M 1122.699951 835.099976 H 1144.799952 V 855.499975 H 1122.699951 V 835.099976 Z" transform="matrix(0.7071000337600708, 0.7071000337600708, -0.7071000337600708, 0.7071000337600708, 929.8316901520155, -554.0664040048623)" class="st11" style="fill: rgb(255, 134, 43);"/><path class="st10" d="M1167.7,256.5c-0.2,0-0.4,0-0.6,0c-36.7,0-66.5,29.8-66.5,66.5c0,36.7,29.8,66.5,66.5,66.5&#10;&#9;&#9;s66.5-29.8,66.5-66.5c0-0.4,0-0.8,0-1.3h-65.8V256.5z" style="fill: rgb(250, 228, 0);" transform="matrix(0.9999999999999999, 0, 0, 0.9999999999999999, -0.00003592220311077199, 0.0000022451376864296435)"/><path class="st11" d="M1183.7,240.5v65.2h65.8C1248.8,269.8,1219.7,240.9,1183.7,240.5z" style="fill: rgb(255, 134, 43);" transform="matrix(0.9999999999999999, 0, 0, 0.9999999999999999, -0.00003592220311077199, 0.0000022451376864296435)"/><path class="st9" d="M478.8,451.4L478.8,451.4c-5.2,5.2-13.6,5.2-18.7,0l-51.2-51.2l18.7-18.7l51.2,51.2&#10;&#9;&#9;C484,437.8,484,446.2,478.8,451.4z" style="fill: rgb(154, 154, 154);" transform="matrix(0.9999999999999999, 0, 0, 0.9999999999999999, -0.00003592220311077199, 0.0000022451376864296435)"/><path d="M 440.200012 359.700012 A 53 53 0 0 1 387.200012 412.700012 A 53 53 0 0 1 334.200012 359.700012 A 53 53 0 0 1 387.200012 306.700012 A 53 53 0 0 1 440.200012 359.700012 Z" transform="matrix(0.7071000337600708, -0.7071000337600708, 0.7071000337600708, 0.7071000337600708, -140.94653860774997, 379.14041362209076)" class="st8" style="fill: rgb(197, 196, 194);"/><path class="st12" d="M410.5,383.1c-12.9,12.9-33.8,12.9-46.7,0s-12.9-33.8,0-46.7c12.9-12.9,33.8-12.9,46.7,0&#10;&#9;&#9;S423.4,370.2,410.5,383.1z" style="fill: rgb(212, 239, 255);" transform="matrix(0.9999999999999999, 0, 0, 0.9999999999999999, -0.00003592220311077199, 0.0000022451376864296435)"/><path class="st11" d="M155.4,614.7c0-8.7,5.9-14.8,14.1-14.8c8.2,0,13.9,6.1,13.9,14.8c0,8.5-5.4,14.8-14.1,14.8&#10;&#9;&#9;C161,629.5,155.4,623.2,155.4,614.7z" style="fill: rgb(255, 134, 43);" transform="matrix(0.9999999999999999, 0, 0, 0.9999999999999999, -0.00003592220311077199, 0.0000022451376864296435)"/><path class="st11" d="M204,614.7c0-8.7,5.9-14.8,14.1-14.8c8.2,0,13.9,6.1,13.9,14.8c0,8.5-5.4,14.8-14.1,14.8&#10;&#9;&#9;C209.6,629.5,204,623.2,204,614.7z" style="fill: rgb(255, 134, 43);" transform="matrix(0.9999999999999999, 0, 0, 0.9999999999999999, -0.00003592220311077199, 0.0000022451376864296435)"/><path class="st11" d="M252.6,614.7c0-8.7,5.9-14.8,14.1-14.8c8.2,0,13.9,6.1,13.9,14.8c0,8.5-5.4,14.8-14.1,14.8&#10;&#9;&#9;C258.3,629.5,252.6,623.2,252.6,614.7z" style="fill: rgb(255, 134, 43);" transform="matrix(0.9999999999999999, 0, 0, 0.9999999999999999, -0.00003592220311077199, 0.0000022451376864296435)"/><path class="st11" d="M637.4,189.9c-5,1.5-7.6,4.9-7.4,9.7c3.2,0.9,6.2,3.5,6.2,7.4v0.9c0,4.1-2.9,7.3-7.4,7.3&#10;&#9;&#9;c-4.8,0-7.9-3.7-7.9-9.6v-1.1c0-7.4,2-12.6,5.5-15.9c2.8-2.9,7.1-4.7,10.3-4.7c2.3,0,3.4,1.3,3.4,3.1&#10;&#9;&#9;C640,188.5,638.9,189.4,637.4,189.9z M662.8,189.9c-5,1.5-7.6,4.9-7.4,9.7c3.2,0.9,6.2,3.5,6.2,7.4v0.9c0,4.1-2.9,7.3-7.4,7.3&#10;&#9;&#9;c-4.8,0-7.9-3.7-7.9-9.6v-1.1c0-7.4,2-12.6,5.4-15.9c2.9-2.9,7.2-4.7,10.3-4.7c2.3,0,3.5,1.3,3.5,3.1&#10;&#9;&#9;C665.4,188.5,664.3,189.4,662.8,189.9z" style="fill: rgb(255, 134, 43);" transform="matrix(0.9999999999999999, 0, 0, 0.9999999999999999, -0.00003592220311077199, 0.0000022451376864296435)"/><path class="st11" d="M674.3,245.3c4.5,0,8.2,3.7,8.2,8.2s-3.7,8.1-8.2,8.1s-8.1-3.6-8.1-8.1S669.9,245.3,674.3,245.3z" style="fill: rgb(255, 134, 43);" transform="matrix(0.9999999999999999, 0, 0, 0.9999999999999999, -0.00003592220311077199, 0.0000022451376864296435)"/><path class="st11" d="M699.5,245.3c4.5,0,8.2,3.7,8.2,8.2s-3.7,8.1-8.2,8.1c-4.5,0-8.1-3.6-8.1-8.1S695,245.3,699.5,245.3z" style="fill: rgb(255, 134, 43);" transform="matrix(0.9999999999999999, 0, 0, 0.9999999999999999, -0.00003592220311077199, 0.0000022451376864296435)"/><path class="st11" d="M724.6,245.3c4.5,0,8.2,3.7,8.2,8.2s-3.7,8.1-8.2,8.1s-8.1-3.6-8.1-8.1S720.1,245.3,724.6,245.3z" style="fill: rgb(255, 134, 43);" transform="matrix(0.9999999999999999, 0, 0, 0.9999999999999999, -0.00003592220311077199, 0.0000022451376864296435)"/><path class="st11" d="M737.2,209.1c5-1.5,7.6-4.9,7.4-9.8c-3.2-0.8-6.2-3.4-6.2-7.3v-0.9c0-4.1,2.9-7.3,7.4-7.3&#10;&#9;&#9;c4.8,0,7.9,3.7,7.9,9.6v1.1c0,7.4-2,12.6-5.4,15.9c-2.9,2.9-7.2,4.7-10.3,4.7c-2.3,0-3.4-1.3-3.4-3.1&#10;&#9;&#9;C734.7,210.5,735.8,209.5,737.2,209.1z M762.6,209.1c5-1.5,7.6-4.9,7.4-9.8c-3.2-0.8-6.2-3.4-6.2-7.3v-0.9c0-4.1,2.9-7.3,7.4-7.3&#10;&#9;&#9;c4.8,0,7.9,3.7,7.9,9.6v1.1c0,7.4-2,12.6-5.5,15.9c-2.8,2.9-7.1,4.7-10.3,4.7c-2.3,0-3.4-1.3-3.4-3.1&#10;&#9;&#9;C760,210.5,761.1,209.5,762.6,209.1z" style="fill: rgb(255, 134, 43);" transform="matrix(0.9999999999999999, 0, 0, 0.9999999999999999, -0.00003592220311077199, 0.0000022451376864296435)"/><path class="st11" d="M930.6,488.8v9.7c0,4.2-3.1,7.3-7.3,7.3c-3.9,0-7.3-3.1-7.3-7.3v-15.6c0-0.1,0.1-0.1,0.1-0.3&#10;&#9;&#9;c-0.1-0.2-0.1-0.2-0.1-0.3c0-3.9,3.4-7.3,7.3-7.3c9.4,0,17.1-7.5,17.1-16.8c0-9.4-7.6-16.8-17.1-16.8c-6.1,0-11.5,3.3-14.4,8.2&#10;&#9;&#9;c-2.1,3.6-6.6,4.8-10.2,2.7c-3.4-2.1-4.6-6.4-2.5-10c5.4-9.3,15.6-15.6,27.1-15.6c17.4,0,31.6,14.1,31.6,31.5&#10;&#9;&#9;C954.9,473,944.5,485.5,930.6,488.8z M930.6,521.6v2.7c0,4.2-3.1,7.3-7.3,7.3c-3.9,0-7.3-3.1-7.3-7.3v-2.7c0-4,3.4-7.3,7.3-7.3&#10;&#9;&#9;C927.4,514.3,930.6,517.6,930.6,521.6z" style="fill: rgb(255, 134, 43);" transform="matrix(0.9999999999999999, 0, 0, 0.9999999999999999, -0.00003592220311077199, 0.0000022451376864296435)"/><path d="M 205.700005 111.800003 A 55.599998 55.599998 0 0 1 150.100006 167.400002 A 55.599998 55.599998 0 0 1 94.500008 111.800003 A 55.599998 55.599998 0 0 1 150.100006 56.200005 A 55.599998 55.599998 0 0 1 205.700005 111.800003 Z" class="st11" style="fill: rgb(255, 134, 43);" transform="matrix(0.9999999999999999, 0, 0, 0.9999999999999999, -0.00003592220311077199, 0.0000022451376864296435)"/><path class="st8" d="M150.1,151.8h-38v32.4c0,3.7,3,6.7,6.7,6.7h31.3h31.3c3.7,0,6.7-3,6.7-6.7v-32.4H150.1z" style="fill: rgb(197, 196, 194);" transform="matrix(0.9999999999999999, 0, 0, 0.9999999999999999, -0.00003592220311077199, 0.0000022451376864296435)"/><path class="st9" d="M150.1,190.9h-18.6c0,9.7,7.9,17.6,17.6,17.6h1h1c9.7,0,17.6-7.9,17.6-17.6H150.1z" style="fill: rgb(154, 154, 154);" transform="matrix(0.9999999999999999, 0, 0, 0.9999999999999999, -0.00003592220311077199, 0.0000022451376864296435)"/><path d="M 150.10000610351562 93.80000305175781 L 150.10000610351562 93.80000305175781 L 128.1999969482422 107.19999694824219 L 134.89999389648438 151.5 L 150.10000610351562 151.5 L 165.3000030517578 151.5 L 172 107.19999694824219 Z" class="st10" style="fill: rgb(250, 228, 0);" transform="matrix(0.9999999999999999, 0, 0, 0.9999999999999999, -0.00003592220311077199, 0.0000022451376864296435)"/></svg>